<?xml version="1.0" encoding="UTF-8"?> <svg xmlns="http://www.w3.org/2000/svg" width="24" height="24" viewBox="0 0 24 24" fill="none"><path d="M21.531 17.7806L18.531 20.7806C18.4614 20.8504 18.3787 20.9057 18.2876 20.9434C18.1966 20.9812 18.099 21.0006 18.0004 21.0006C17.9019 21.0006 17.8043 20.9812 17.7132 20.9434C17.6222 20.9057 17.5394 20.8504 17.4698 20.7806L14.4698 17.7806C14.3291 17.6399 14.25 17.449 14.25 17.25C14.25 17.051 14.3291 16.8601 14.4698 16.7194C14.6105 16.5786 14.8014 16.4996 15.0004 16.4996C15.1994 16.4996 15.3903 16.5786 15.531 16.7194L17.2504 18.4397V13.0603L12.0004 7.81031L6.75042 13.0603V18.4397L8.46979 16.7194C8.61052 16.5786 8.80139 16.4996 9.00042 16.4996C9.19944 16.4996 9.39031 16.5786 9.53104 16.7194C9.67177 16.8601 9.75083 17.051 9.75083 17.25C9.75083 17.449 9.67177 17.6399 9.53104 17.7806L6.53104 20.7806C6.46139 20.8504 6.37867 20.9057 6.28762 20.9434C6.19657 20.9812 6.09898 21.0006 6.00042 21.0006C5.90186 21.0006 5.80426 20.9812 5.71321 20.9434C5.62216 20.9057 5.53945 20.8504 5.46979 20.7806L2.46979 17.7806C2.40011 17.7109 2.34483 17.6282 2.30712 17.5372C2.26941 17.4461 2.25 17.3485 2.25 17.25C2.25 17.1515 2.26941 17.0539 2.30712 16.9628C2.34483 16.8718 2.40011 16.7891 2.46979 16.7194C2.61052 16.5786 2.80139 16.4996 3.00042 16.4996C3.09896 16.4996 3.19654 16.519 3.28759 16.5567C3.37863 16.5944 3.46136 16.6497 3.53104 16.7194L5.25042 18.4397V12.75C5.25034 12.6515 5.26967 12.5539 5.30731 12.4629C5.34496 12.3718 5.40017 12.2891 5.46979 12.2194L11.2504 6.43969V2.25C11.2504 2.05109 11.3294 1.86032 11.4701 1.71967C11.6107 1.57902 11.8015 1.5 12.0004 1.5C12.1993 1.5 12.3901 1.57902 12.5307 1.71967C12.6714 1.86032 12.7504 2.05109 12.7504 2.25V6.43969L18.531 12.2194C18.6007 12.2891 18.6559 12.3718 18.6935 12.4629C18.7312 12.5539 18.7505 12.6515 18.7504 12.75V18.4397L20.4698 16.7194C20.6105 16.5786 20.8014 16.4996 21.0004 16.4996C21.1994 16.4996 21.3903 16.5786 21.531 16.7194C21.6718 16.8601 21.7508 17.051 21.7508 17.25C21.7508 17.449 21.6718 17.6399 21.531 17.7806Z" fill="#0D0D0D"></path></svg> 